<svg width="29" height="26" viewBox="0 0 29 26" fill="none" xmlns="http://www.w3.org/2000/svg">
<path d="M28.4743 10.2364C28.4092 10.6932 28.372 11.1593 28.2697 11.6161C27.3397 15.5407 24.9403 18.0576 21.0528 19.1017C20.4018 19.2788 19.7043 19.3254 18.9603 19.4373C19.0347 19.1856 19.0812 19.0271 19.137 18.8686C19.2486 18.5424 19.3788 18.2161 19.4625 17.8805C19.5276 17.6475 19.6485 17.5636 19.881 17.5356C21.1551 17.3771 22.3269 16.9203 23.3686 16.1653C25.2937 14.767 26.4097 12.8839 26.6515 10.5161C27.0607 6.44238 24.2707 2.76018 20.2344 2.02374C16.3842 1.32459 12.5339 3.64577 11.3342 7.39323C10.7111 9.33221 10.8227 11.2432 11.5202 13.1356C11.5388 13.2009 11.5667 13.2568 11.6039 13.3686C11.2691 13.3686 10.9622 13.3686 10.646 13.3686C10.4042 13.3686 10.1531 13.378 9.9113 13.3593C9.8369 13.35 9.7346 13.2661 9.7067 13.2009C9.12079 11.2619 8.97199 9.32289 9.48349 7.32797C10.4507 3.62713 13.6871 0.672047 17.4537 0.103403C21.9456 -0.577105 26.4376 2.16357 27.9163 6.48899C28.1953 7.30933 28.3906 8.15763 28.4371 9.02458C28.4371 9.07119 28.465 9.1178 28.4743 9.16441C28.4743 9.52797 28.4743 9.88221 28.4743 10.2364Z" fill="white"/>
<path d="M13.7137 25.9996C13.6486 25.9809 13.5835 25.9623 13.5184 25.9436C12.765 25.7852 12.2256 25.0674 12.3093 24.3496C12.4023 23.5106 13.0162 22.9326 13.8253 22.9326C14.6065 22.9326 15.2575 23.5292 15.3319 24.303C15.4063 25.0767 14.8762 25.7758 14.1136 25.9343C14.0485 25.9436 13.9834 25.9716 13.9183 25.9902C13.8532 25.9996 13.7881 25.9996 13.7137 25.9996Z" fill="white"/>
<path d="M7.14777 26.0001C6.98037 25.9442 6.80366 25.9162 6.64556 25.8417C5.94805 25.534 5.60395 24.779 5.80855 24.0425C6.00385 23.3247 6.68276 22.8679 7.43607 22.9425C8.12428 23.0078 8.71949 23.6044 8.77529 24.2942C8.84039 25.0679 8.36608 25.7484 7.62207 25.9349C7.54767 25.9535 7.48257 25.9722 7.40817 26.0001C7.32447 26.0001 7.23147 26.0001 7.14777 26.0001Z" fill="white"/>
<path d="M6.95298 20.6584C7.05528 20.6584 7.13898 20.6584 7.22268 20.6584C9.84531 20.6584 12.4679 20.6584 15.0813 20.6677C15.2952 20.6677 15.3975 20.6117 15.4533 20.3973C15.5463 20.0151 15.6672 19.6329 15.7881 19.2134C15.6486 19.2134 15.5556 19.2134 15.4533 19.2134C13.0446 19.2134 10.6358 19.2134 8.22709 19.2134C7.90159 19.2134 7.64119 19.0084 7.55749 18.6914C7.46449 18.3278 7.57609 18.0016 7.87369 17.8524C7.98529 17.7965 8.13409 17.7778 8.26429 17.7778C10.8125 17.7778 13.3701 17.7685 15.9183 17.7778C16.1415 17.7778 16.2438 17.7219 16.2996 17.4982C16.4019 17.0787 16.5414 16.6685 16.6716 16.2117C16.5507 16.2117 16.4577 16.2117 16.3647 16.2117C13.77 16.2117 11.1752 16.2117 8.5805 16.2117C8.20849 16.2117 7.93879 15.9973 7.84579 15.6431C7.75279 15.2702 7.89229 14.916 8.20849 14.7575C8.3015 14.7109 8.4224 14.6923 8.5247 14.6923C11.5658 14.6923 14.6163 14.6923 17.6574 14.6923C18.3828 14.6923 18.7548 15.1304 18.5688 15.8389C18.3456 16.6499 18.0666 17.4423 17.7969 18.2346C17.4156 19.3906 17.0157 20.5465 16.6344 21.7117C16.4577 22.2431 16.1601 22.4762 15.6021 22.4762C12.5609 22.4762 9.51051 22.4762 6.46937 22.4762C5.85557 22.4762 5.50216 22.1778 5.41846 21.5626C5.17666 19.8007 4.94416 18.0482 4.71165 16.2863C4.59075 15.3914 4.47915 14.4965 4.34895 13.6109C4.29315 13.2101 3.99554 12.977 3.66074 12.8185C2.90743 12.455 2.14482 12.1101 1.38221 11.7465C0.954409 11.5414 0.582405 11.2618 0.526605 10.7584C0.508004 10.5626 0.573104 10.3202 0.675405 10.1431C0.796307 9.91938 1.06601 9.8448 1.29851 9.95667C2.62843 10.6279 3.94904 11.3084 5.27896 11.9982C5.37196 12.0448 5.45566 12.1287 5.54866 12.194C5.80907 12.3897 5.95787 12.6414 6.00437 12.977C6.24617 15.0372 6.50657 17.088 6.75768 19.1482C6.80418 19.6329 6.87858 20.127 6.95298 20.6584Z" fill="white"/>
<path d="M17.8531 7.60776C17.8531 6.70353 17.8438 5.80861 17.8531 4.90438C17.8624 4.30777 18.3646 3.95353 18.8668 4.18658C19.1737 4.32641 19.276 4.58743 19.276 4.9137C19.276 6.20014 19.276 7.47726 19.276 8.7637C19.276 9.10861 19.2853 9.46285 19.276 9.80776C19.2667 9.9942 19.3225 10.0967 19.4992 10.1713C20.1595 10.4603 20.8105 10.7679 21.4522 11.0849C21.8614 11.2806 21.9916 11.7467 21.7591 12.1196C21.5731 12.4179 21.2011 12.5391 20.8663 12.3806C20.0293 11.9984 19.1923 11.6069 18.3553 11.2061C17.9833 11.0289 17.8438 10.6747 17.8438 10.2832C17.8531 9.38827 17.8531 8.50268 17.8531 7.60776Z" fill="white"/>
</svg>
